<?xml version="1.0" encoding="iso-8859-1"?>
<!-- Generator: Adobe Illustrator 19.0.0, SVG Export Plug-In . SVG Version: 6.00 Build 0)  -->
<svg version="1.1" id="Layer_1" xmlns="http://www.w3.org/2000/svg" xmlns:xlink="http://www.w3.org/1999/xlink" x="0px" y="0px"
	 viewBox="0 0 512 512" style="enable-background:new 0 0 512 512;" xml:space="preserve">
<g>
	<g>
		<path d="M487.489,378.556h-10.915c5.141-6.832,8.192-15.321,8.192-24.511c0-19.736-14.069-36.247-32.704-40.035
			c-1.017-42.671-36.046-77.071-78.956-77.071c-2.162,0-4.345,0.094-6.536,0.278c-4.661-14.422-13.482-27.377-25.333-37.033
			c-14.02-11.422-31.718-17.713-49.833-17.713s-35.813,6.29-49.833,17.713c-11.851,9.656-20.672,22.611-25.333,37.033
			c-2.191-0.184-4.374-0.278-6.536-0.278c-22.982,0-44.787,10.004-59.824,27.444c-2.946,3.418-2.564,8.577,0.853,11.523
			c3.416,2.942,8.574,2.565,11.523-0.853c11.93-13.838,29.223-21.774,47.448-21.774c3.649,0,7.387,0.338,11.11,1.003
			c4.318,0.775,8.481-2.008,9.419-6.294c6.24-28.494,31.966-49.177,61.172-49.177s54.933,20.682,61.172,49.177
			c0.938,4.288,5.098,7.068,9.419,6.294c3.723-0.666,7.462-1.003,11.11-1.003c34.539,0,62.638,28.099,62.638,62.638
			c0,1.45-0.066,2.985-0.206,4.833c-0.174,2.288,0.621,4.544,2.193,6.215c1.546,1.645,3.701,2.575,5.954,2.575
			c0.075,0,0.17-0.002,0.324-0.007c13.472,0.051,24.417,11.027,24.417,24.511c0,13.515-10.996,24.511-24.511,24.511h-57.19v-57.191
			c0-4.513-3.657-8.17-8.17-8.17c-18.753,0-27.551-4.615-37.738-9.959c-10.57-5.545-22.549-11.828-45.328-11.828
			s-34.759,6.285-45.329,11.828c-10.187,5.343-18.984,9.959-37.738,9.959c-18.752,0-27.549-4.615-37.736-9.959
			c-10.569-5.545-22.549-11.828-45.327-11.828c-22.777,0-34.756,6.285-45.325,11.828c-10.186,5.343-18.982,9.959-37.734,9.959
			c-4.513,0-8.17,3.657-8.17,8.17v57.191H24.511C10.996,378.556,0,389.552,0,403.067c0,11.327,7.725,20.88,18.181,23.677
			l8.583,28.611c4.49,14.967,20.248,26.69,35.874,26.69h386.723c15.626,0,31.383-11.724,35.874-26.69l8.583-28.611
			C504.275,423.947,512,414.393,512,403.067C512,389.551,501.004,378.556,487.489,378.556z M54.467,329.244
			c17.627-1.294,27.928-6.698,37.155-11.54c10.186-5.343,18.982-9.959,37.734-9.959c18.753,0,27.55,4.615,37.737,9.959
			c10.569,5.545,22.548,11.828,45.326,11.828s34.758-6.285,45.328-11.828c10.187-5.343,18.984-9.959,37.739-9.959
			c18.753,0,27.551,4.615,37.738,9.959c9.229,4.84,19.531,10.245,37.158,11.54v16.287c-13.38-1.146-20.999-5.117-29.577-9.614
			c-7.65-4.012-15.56-8.158-27.514-10.336c-4.432-0.802-8.692,2.134-9.503,6.574c-0.808,4.439,2.135,8.693,6.574,9.503
			c9.501,1.731,15.987,5.131,22.854,8.731c9.23,4.84,19.538,10.242,37.165,11.535v16.63H54.468v-16.63
			c17.625-1.294,27.928-6.697,37.155-11.539c10.187-5.343,18.983-9.959,37.736-9.959c18.752,0,27.549,4.615,37.735,9.959
			c10.569,5.545,22.548,11.828,45.326,11.828c22.78,0,34.763-6.282,45.335-11.825c6.867-3.6,13.353-7,22.855-8.731
			c4.439-0.808,7.383-5.062,6.574-9.503c-0.809-4.44-5.067-7.376-9.503-6.574c-11.955,2.178-19.865,6.326-27.515,10.336
			c-10.191,5.342-18.992,9.957-37.747,9.957c-18.752,0-27.549-4.615-37.735-9.959c-10.569-5.545-22.548-11.828-45.326-11.828
			s-34.757,6.285-45.326,11.828c-8.574,4.499-16.189,8.469-29.564,9.616V329.244z M487.489,411.237c-0.061,0-0.09,0-0.119,0H89.872
			c-4.513,0-8.17,3.657-8.17,8.17s3.657,8.17,8.17,8.17h386.636l-6.924,23.081c-2.405,8.014-11.854,15.046-20.222,15.046H62.639
			c-8.368,0-17.817-7.031-20.222-15.046l-6.924-23.081h21.698c4.513,0,8.17-3.657,8.17-8.17s-3.657-8.17-8.17-8.17H24.638
			c-0.035,0-0.071,0-0.106,0c-4.527,0-8.192-3.665-8.192-8.17c0-4.506,3.665-8.17,8.17-8.17h462.979c4.506,0,8.17,3.665,8.17,8.17
			C495.66,407.572,491.995,411.237,487.489,411.237z"/>
	</g>
</g>
<g>
	<g>
		<path d="M234.213,128.002c0-12.897,3.324-18.991,7.172-26.048c4.298-7.878,9.168-16.809,9.168-33.872
			c0-17.062-4.872-25.99-9.169-33.869c-2.161-3.961-7.124-5.421-11.085-3.259s-5.421,7.124-3.259,11.085
			c3.849,7.057,7.173,13.149,7.173,26.043c0,12.897-3.324,18.991-7.172,26.048c-4.297,7.878-9.168,16.809-9.168,33.872
			s4.871,25.992,9.168,33.872c1.483,2.718,4.287,4.258,7.18,4.258c1.321,0,2.662-0.321,3.905-0.999
			c3.961-2.16,5.421-7.123,3.259-11.085C237.536,146.992,234.213,140.899,234.213,128.002z"/>
	</g>
</g>
<g>
	<g>
		<path d="M277.787,128.002c0-12.897,3.324-18.991,7.172-26.048c4.298-7.878,9.168-16.809,9.168-33.872
			c0-17.062-4.872-25.99-9.169-33.869c-2.161-3.961-7.124-5.421-11.085-3.259s-5.421,7.124-3.259,11.085
			c3.849,7.057,7.173,13.149,7.173,26.043c0,12.897-3.324,18.991-7.172,26.048c-4.298,7.878-9.168,16.809-9.168,33.872
			s4.871,25.992,9.168,33.872c1.483,2.718,4.287,4.258,7.18,4.258c1.321,0,2.662-0.321,3.905-0.999
			c3.961-2.16,5.421-7.123,3.259-11.085C281.111,146.992,277.787,140.899,277.787,128.002z"/>
	</g>
</g>
<g>
</g>
<g>
</g>
<g>
</g>
<g>
</g>
<g>
</g>
<g>
</g>
<g>
</g>
<g>
</g>
<g>
</g>
<g>
</g>
<g>
</g>
<g>
</g>
<g>
</g>
<g>
</g>
<g>
</g>
</svg>
