<?xml version='1.0' encoding='iso-8859-1'?>
<svg version="1.1" xmlns="http://www.w3.org/2000/svg" viewBox="0 0 338.334 338.334" xmlns:xlink="http://www.w3.org/1999/xlink" enable-background="new 0 0 338.334 338.334">
  <path d="m299.13,192.924h-88.725c-18.604,0-33.738-15.135-33.738-33.738v-0.416-17.706c17.221-3.487 30.226-18.742 30.226-36.977 0-20.802-16.924-37.726-37.726-37.726s-37.726,16.924-37.726,37.726c0,4.143 3.358,7.5 7.5,7.5s7.5-3.357 7.5-7.5c0-12.531 10.195-22.726 22.726-22.726s22.726,10.194 22.726,22.726-10.195,22.726-22.726,22.726c-4.142,0-7.5,3.357-7.5,7.5v24.457 0.416c0,18.604-15.135,33.738-33.738,33.738h-88.725c-21.617,0-39.204,17.587-39.204,39.204v0.641c0,21.617 17.587,39.204 39.204,39.204h259.926c21.617,0 39.204-17.587 39.204-39.204v-0.641c0-21.617-17.587-39.204-39.204-39.204zm24.204,39.845c0,13.346-10.858,24.204-24.204,24.204h-259.926c-13.346,0-24.204-10.859-24.204-24.204v-0.641c0-13.346 10.858-24.204 24.204-24.204h88.725c17.343,0 32.598-9.104 41.238-22.785 8.64,13.682 23.896,22.785 41.238,22.785h88.725c13.346,0 24.204,10.858 24.204,24.204v0.641z"/>
</svg>
